<svg xmlns="http://www.w3.org/2000/svg" xmlns:xlink="http://www.w3.org/1999/xlink" width="185" height="55" viewBox="0"><defs><style>.a,.c{fill:#fff;}.b,.d{fill:#5617e0;}.c{font-size:13px;font-family:Roboto-Regular, Roboto;letter-spacing:0.089em;}.d{font-size:17px;font-family:Roboto-Light, Roboto;font-weight:300;letter-spacing:0.001em;}.e{fill:#3f3f3f;}.f{fill:#7f62e3;}.g{filter:url(#c);}.h{filter:url(#a);}</style></defs><g transform="translate(-65,-10)"><g transform="translate(44.003 -46.811)"><g transform="translate(89.882 60.976)"><path class="e" d="M193.149,105.518a9.415,9.415,0,0,1,2.937-6.983,10.361,10.361,0,0,1,14.354.02,10.143,10.143,0,0,1-.019,14.257,10.039,10.039,0,0,1-7.255,2.859,9.627,9.627,0,0,1-7.138-2.917A9.811,9.811,0,0,1,193.149,105.518Zm4.474.078a6.39,6.39,0,0,0,1.517,4.493,5.9,5.9,0,0,0,8.208.019,7.112,7.112,0,0,0,0-8.83,5.824,5.824,0,0,0-8.169,0A6.086,6.086,0,0,0,197.623,105.6Z" transform="translate(-193.149 -82.275)"/><path class="e" d="M260.347,60.976V93.828h-4.376V60.976Z" transform="translate(-231.731 -60.976)"/><path class="e" d="M277.812,105.518a9.413,9.413,0,0,1,2.937-6.983,10.361,10.361,0,0,1,14.354.02,10.143,10.143,0,0,1-.02,14.257,10.038,10.038,0,0,1-7.255,2.859,9.628,9.628,0,0,1-7.138-2.917A9.813,9.813,0,0,1,277.812,105.518Zm4.474.078a6.388,6.388,0,0,0,1.517,4.493,5.9,5.9,0,0,0,8.208.019,7.112,7.112,0,0,0,0-8.83,5.824,5.824,0,0,0-8.169,0A6.086,6.086,0,0,0,282.286,105.6Z" transform="translate(-245.144 -82.275)"/><path class="e" d="M357.533,114.679q0,1.342-.088,2.363a16.375,16.375,0,0,1-.243,1.8,8.014,8.014,0,0,1-1.829,3.676,8.861,8.861,0,0,1-7.06,2.956,9.425,9.425,0,0,1-6.244-2.042,8.35,8.35,0,0,1-2.917-5.816h4.4a4.98,4.98,0,0,0,.837,2.159,4.7,4.7,0,0,0,3.968,1.77q4.8,0,4.8-5.894v-2.645a8.173,8.173,0,0,1-6.01,2.665,8.071,8.071,0,0,1-6.341-2.8,10.378,10.378,0,0,1-2.49-7.1,10.929,10.929,0,0,1,2.314-7.041,8.044,8.044,0,0,1,6.574-3.073,7.636,7.636,0,0,1,5.952,2.665v-2.14h4.376Zm-4.2-8.986a6.38,6.38,0,0,0-1.478-4.415,4.888,4.888,0,0,0-3.832-1.692,4.711,4.711,0,0,0-3.929,1.848,7.614,7.614,0,0,0,0,8.519,4.716,4.716,0,0,0,3.929,1.809,4.8,4.8,0,0,0,3.968-1.829A6.511,6.511,0,0,0,353.332,105.694Z" transform="translate(-282.302 -82.275)"/><path class="e" d="M399.172,72.114a2.856,2.856,0,0,1,2.84-2.82,2.756,2.756,0,0,1,2.023.836,2.693,2.693,0,0,1,.837,2,2.756,2.756,0,0,1-.837,2.023,2.692,2.692,0,0,1-2,.836,2.856,2.856,0,0,1-2.859-2.879Zm5.038,7.877V98.936h-4.376V79.992Z" transform="translate(-319.676 -66.084)"/><path class="e" d="M426.864,105.712l-6.808-8.694h5.213l4.221,5.524,4.3-5.524h5.368l-7,8.694,8.111,10.25h-5.213l-5.563-7.08-5.7,7.08h-5.349Z" transform="translate(-331.511 -83.111)"/></g><g transform="translate(25 74.386)"><path class="f" d="M155.945,109.03l-2.451,2.41a2.362,2.362,0,0,1-3.43.218l-.107-.108s-1.457-1.5.338-3.3l2.38-2.413.027-.028,2.39-2.367c1.8-1.8,3.284-.327,3.284-.327l.107.107a2.331,2.331,0,0,1-.191,3.413l-2.395,2.446" transform="translate(-101.398 -99.916)"/><path class="f" d="M130.632,107.3s.977,4.43,6.208,4.016a5.627,5.627,0,0,0,4.687-3.859,2.245,2.245,0,0,1,2.432-1.858s2.017.208,2.045,2.086a9.643,9.643,0,0,1-7.714,8.151s-7.651,2.067-11.764-6.237a9.366,9.366,0,0,1-.441-1.266c-.117-.5-.207-1.111-.207-1.111a10.326,10.326,0,0,1,7.358-11.164c8.119-1.7,11.359,3.823,11.359,3.823a2.56,2.56,0,0,1-1,2.853c-1.237.683-3.287-.537-3.287-.537-3.431-2.442-6.256-1.294-6.256-1.294a5.437,5.437,0,0,0-3.44,6.31Z" transform="translate(-86.918 -95.73)"/><path class="b" d="M161.011,103.467s2.414-2.083,3.886.7a2.408,2.408,0,0,1-.98,2.743c-1.555.92-4.381-1.092-4.381-1.092l-.657-.33Z" transform="translate(-107.221 -100.022)"/><path class="f" d="M31.951,115.479c2.121,3.538,4.609,2.025,4.609,2.025s2.423-1.56.387-5.15l-2.7-4.742-2.979-5.183c-2.226-3.846-4.714-2.18-4.714-2.18s-2.516,1.189-.543,4.951l3.076,5.315Z" transform="translate(-25.157 -98.285)"/><path class="f" d="M45.5,112.6c-2,3.606.55,5,.55,5s2.563,1.318,4.654-2.24l2.757-4.709,3-5.172c2.218-3.85-.47-5.173-.47-5.173s-2.288-1.584-4.559,2l-3.064,5.322Z" transform="translate(-37.121 -98.328)"/><path class="b" d="M44.916,131.621A2.316,2.316,0,0,0,47.3,133.3a2.737,2.737,0,0,0,2.5-1.612c.751-1.847-1.255-4.771-1.255-4.771L47.3,125.042l-1.141,1.947S44.186,129.8,44.916,131.621Z" transform="translate(-37.132 -113.732)"/><path class="b" d="M30.392,102.529a2.7,2.7,0,1,1-2.7-2.694A2.7,2.7,0,0,1,30.392,102.529Z" transform="translate(-25 -98.251)"/><path class="f" d="M89.119,115.479C87,119.017,84.51,117.5,84.51,117.5s-2.424-1.56-.387-5.15l2.7-4.742,2.979-5.183c2.226-3.846,4.714-2.18,4.714-2.18s2.516,1.189.543,4.951l-3.076,5.315Z" transform="translate(-60.81 -98.285)"/><path class="f" d="M75.41,112.6c2,3.606-.551,5-.551,5s-2.563,1.318-4.654-2.24l-2.758-4.709-3-5.172c-2.218-3.85.47-5.173.47-5.173s2.287-1.584,4.559,2l3.065,5.322Z" transform="translate(-48.689 -98.328)"/><path class="b" d="M87.762,131.621a2.316,2.316,0,0,1-2.387,1.677,2.736,2.736,0,0,1-2.5-1.612c-.751-1.847,1.255-4.771,1.255-4.771l1.245-1.873,1.141,1.947S88.492,129.8,87.762,131.621Z" transform="translate(-60.443 -113.732)"/><path class="b" d="M68.773,101.432a2.448,2.448,0,0,0-2.505-1.662,2.7,2.7,0,0,0-2.428,1.649c-.751,1.847,1.163,4.776,1.163,4.776l1.315,2.133,1.34-2.307S69.5,103.253,68.773,101.432Z" transform="translate(-48.746 -98.211)"/><path class="b" d="M101.756,102.529a2.7,2.7,0,1,0,2.7-2.694A2.7,2.7,0,0,0,101.756,102.529Z" transform="translate(-72.139 -98.251)"/><g transform="translate(1.175 25.754)"><path class="f" d="M56.4,174.319q-.6,0-1.15-.014a47.537,47.537,0,0,1-26.607-8.978,1.6,1.6,0,0,1,2-2.5A45.132,45.132,0,0,0,55.336,171.1a44.309,44.309,0,0,0,27.048-8.321,1.6,1.6,0,0,1,1.887,2.588A47.491,47.491,0,0,1,56.4,174.319Z" transform="translate(-28.044 -162.475)"/></g></g></g></g></svg>
